<?xml version="1.0" encoding="utf-8"?>
<!DOCTYPE svg PUBLIC "-//W3C//DTD SVG 1.1//EN" "http://www.w3.org/Graphics/SVG/1.1/DTD/svg11.dtd">
<svg xmlns="http://www.w3.org/2000/svg" xmlns:xlink="http://www.w3.org/1999/xlink" version="1.1" baseProfile="full" width="278.691" height="96.4427" viewBox="0 0 278.69 96.44" enable-background="new 0 0 278.69 96.44" xml:space="preserve">
	<path fill="#1477C5" fill-opacity="1" stroke-width="0.32" stroke-linejoin="round" d="M 201.451,52.013C 203.615,49.8437 203.803,46.8359 203.803,45.1406C 203.803,38.3633 199.756,27.8203 191.945,27.8203C 189.496,27.8203 186.863,29.0443 185.352,30.9283C 183.753,32.9063 183.284,35.444 183.284,37.8945C 183.284,44.1992 186.956,54.6484 195.053,54.6484C 197.404,54.6484 199.941,53.5208 201.451,52.013 Z M 198.72,69.8984C 197.969,69.8021 197.499,69.8021 196.56,69.8021C 195.712,69.8021 190.625,69.9921 186.672,71.3112C 184.603,72.0638 178.579,74.3203 178.579,81.0052C 178.579,87.6888 185.076,92.4921 195.147,92.4921C 204.18,92.4921 208.985,88.1549 208.985,82.3268C 208.985,77.5169 205.879,74.983 198.72,69.8984 Z M 205.407,28.1028C 207.571,29.8918 212.087,33.6549 212.087,40.8112C 212.087,47.7748 208.133,51.0742 204.18,54.177C 202.956,55.3984 201.545,56.72 201.545,58.7929C 201.545,60.8607 202.956,61.9896 203.991,62.8398L 207.384,65.47C 211.524,68.9543 215.287,72.1575 215.287,78.6549C 215.287,87.5013 206.72,96.4426 190.532,96.4426C 176.881,96.4426 170.295,89.9492 170.295,82.9805C 170.295,79.5898 171.985,74.7955 177.545,71.4961C 183.376,67.9205 191.287,67.4518 195.521,67.1639C 194.201,65.47 192.696,63.6835 192.696,60.7669C 192.696,59.168 193.169,58.2239 193.639,57.095C 192.6,57.1888 191.568,57.2825 190.625,57.2825C 180.649,57.2825 175,49.8437 175,42.5065C 175,38.177 176.98,33.3724 181.024,29.8918C 186.391,25.4674 192.789,24.7148 197.876,24.7148L 217.264,24.7148L 211.24,28.1028L 205.407,28.1028 Z "/>
	<path fill="#FABE16" fill-opacity="1" stroke-width="0.32" stroke-linejoin="round" d="M 157.891,60.78C 160.152,57.7708 160.717,54.0142 160.717,50.345C 160.717,42.0754 156.769,26.289 145.115,26.289C 142.013,26.289 138.912,27.513 136.659,29.4882C 132.993,32.7748 132.332,36.9101 132.332,40.953C 132.332,50.2552 136.937,65.5703 148.311,65.5703C 151.975,65.5703 155.735,63.7864 157.891,60.78 Z M 146.147,68.3918C 131.206,68.3918 123.216,56.7396 123.216,46.2109C 123.216,33.8997 133.272,23.3762 147.56,23.3762C 161.371,23.3762 170.019,34.1823 170.019,45.556C 170.019,56.6418 161.469,68.3918 146.147,68.3918 Z "/>
	<path fill="#EC114B" fill-opacity="1" stroke-width="0.32" stroke-linejoin="round" d="M 106.956,60.78C 109.214,57.7708 109.777,54.0142 109.777,50.345C 109.777,42.0754 105.829,26.289 94.1758,26.289C 91.0755,26.289 87.9727,27.513 85.7174,29.4882C 82.0522,32.7748 81.3959,36.9101 81.3959,40.953C 81.3959,50.2552 85.9987,65.5703 97.3737,65.5703C 101.039,65.5703 104.798,63.7864 106.956,60.78 Z M 95.2084,68.3918C 80.2656,68.3918 72.276,56.7396 72.276,46.2109C 72.276,33.8997 82.3347,23.3762 96.6197,23.3762C 110.432,23.3762 119.079,34.1823 119.079,45.556C 119.079,56.6418 110.529,68.3918 95.2084,68.3918 Z "/>
	<path fill="#1477C5" fill-opacity="1" stroke-width="0.32" stroke-linejoin="round" d="M 65.0976,66.918L 51.5847,70.0364C 46.1028,70.8867 41.1915,71.6418 35.9973,71.6418C 9.91797,71.6418 0,52.4609 0,37.4361C 0,19.1081 14.0768,2.10541 38.1719,2.10541C 43.2748,2.10541 48.185,2.85803 52.6237,4.08722C 59.7123,6.07159 63.0183,8.52863 65.0976,9.94525L 57.2539,17.4101L 53.9479,18.1639L 56.3098,14.3814C 53.0989,11.2669 47.237,5.50385 36.0912,5.50385C 21.1628,5.50385 9.91797,16.8464 9.91797,33.3789C 9.91797,51.1379 22.7683,67.8607 43.3633,67.8607C 49.4153,67.8607 52.5287,66.6367 55.3633,65.4986L 55.3633,50.289L 41.0989,51.0443L 48.6549,46.9817L 68.6861,46.9817L 66.2317,49.3412C 65.5651,49.9063 65.4752,50.1016 65.2852,50.8516C 65.1875,51.7043 65.0976,54.4453 65.0976,55.3893L 65.0976,66.918 Z "/>
	<path fill="#47AE34" fill-opacity="1" stroke-width="0.32" stroke-linejoin="round" d="M 235.272,64.1992C 232.149,63.9139 231.496,63.3489 231.496,59.6639L 231.496,58.621L 231.496,6.18488C 231.513,5.98041 231.529,5.77209 231.551,5.5755C 231.928,2.26947 232.873,1.70441 235.803,-6.10352e-005L 222.289,-6.10352e-005L 215.201,3.40228L 222.425,3.40228L 222.425,3.44525L 222.42,3.41272L 222.42,58.621L 222.42,61.7421C 222.42,63.6302 222.045,63.9139 219.871,66.7461L 236.595,66.7461L 240.092,64.6705C 238.485,64.4805 236.879,64.3867 235.272,64.1992 Z "/>
	<path fill="#EC114B" fill-opacity="1" stroke-width="0.32" stroke-linejoin="round" d="M 264.899,37.1028C 266.68,36.4453 267.617,35.8841 267.617,34.5703C 267.617,30.8203 263.396,26.4999 258.329,26.4999C 254.571,26.4999 247.537,29.4101 247.537,39.5443C 247.537,41.1406 247.724,42.8294 247.821,44.5182M 273.717,65.0677C 272.688,65.6302 271.655,66.289 270.625,66.7578C 267.524,68.1639 264.333,68.539 261.519,68.539C 258.519,68.539 253.827,68.3489 249.037,64.8802C 242.381,60.1861 239.469,52.1171 239.469,45.0794C 239.469,30.5377 251.295,23.4063 260.956,23.4063C 264.333,23.4063 267.811,24.2499 270.625,26.0352C 275.313,29.1262 276.532,33.1601 277.188,35.319L 255.141,44.2357L 247.912,44.7981C 250.256,56.7148 258.329,63.6575 267.243,63.6575C 272.029,63.6575 275.5,61.97 278.691,60.3762L 273.717,65.0677 Z "/>
</svg>
