<?xml version="1.0" encoding="utf-8"?>
<!DOCTYPE svg PUBLIC "-//W3C//DTD SVG 1.1//EN" "http://www.w3.org/Graphics/SVG/1.1/DTD/svg11.dtd">
<svg xmlns="http://www.w3.org/2000/svg" xmlns:xlink="http://www.w3.org/1999/xlink" version="1.1" baseProfile="full" width="192" height="43.7202" viewBox="0 0 192.00 43.72" enable-background="new 0 0 192.00 43.72" xml:space="preserve">
	<path fill="#FFFFFF" fill-opacity="1" fill-rule="evenodd" stroke-width="0.2" stroke-linejoin="round" d="M 119.268,24.4748C 117.986,26.3778 116.021,27.6807 113.508,27.6807C 109.91,27.6807 106.996,25.0262 106.996,21.0176C 106.996,17.0218 109.91,14.3571 113.508,14.3571C 115.821,14.3571 117.824,15.4471 119.027,17.3527L 125.039,13.0132C 122.433,9.20721 118.117,6.93231 113.508,6.93231C 105.763,6.93231 99.4918,13.2338 99.4918,21.0073C 99.4918,28.7835 105.763,35.0746 113.508,35.0746C 118.096,35.0746 122.202,33.0203 125.339,28.7014L 119.268,24.4748 Z "/>
	<path fill="#FFFFFF" fill-opacity="1" fill-rule="evenodd" stroke-width="0.2" stroke-linejoin="round" d="M 88.692,7.74536L 88.692,10.0485C 86.8197,8.26599 84.3345,6.93231 80.8389,6.93231C 74.1861,6.93231 68.0154,12.5618 68.0154,21.0073C 68.0154,29.4528 74.1245,35.0849 80.8389,35.0849C 84.0729,35.0849 86.5479,33.8128 88.4124,31.9688L 88.4124,34.2821L 95.9244,34.2821L 95.9244,7.74536L 88.692,7.74536 Z M 88.5405,21.0176C 88.5405,25.0057 85.6271,27.6807 82.0391,27.6807C 78.4434,27.6807 75.5273,25.0262 75.5273,21.0176C 75.5273,17.0219 78.4434,14.3571 82.0391,14.3571C 85.6271,14.3571 88.5405,17.0424 88.5405,21.0176 Z "/>
	<path fill="#FFFFFF" fill-opacity="1" fill-rule="evenodd" stroke-width="0.2" stroke-linejoin="round" d="M 57.1643,10.8409L 57.1541,10.8409L 57.1541,7.74536L 49.9216,7.74536L 49.9216,34.2821L 57.4258,34.2821L 57.4258,21.6998C 57.4258,16.4088 60.3496,14.9778 63.5965,14.9778C 64.3967,14.9778 65.2482,15.0265 66.1509,15.2368L 66.1509,7.74536C 65.4585,7.55301 64.7378,7.46326 64.0273,7.47351C 61.8936,7.47351 58.8364,8.17621 57.1643,10.8409 Z "/>
	<path fill="#FFFFFF" fill-opacity="1" fill-rule="evenodd" stroke-width="0.2" stroke-linejoin="round" d="M 135.477,7.70428L 135.477,0L 127.965,0L 127.965,25.8879C 127.965,31.1763 131.179,34.4925 137.552,34.4925C 140.096,34.4925 142.481,34.1231 144.074,33.6923L 144.074,26.9497C 142.399,27.4396 140.668,27.6909 138.924,27.6909C 136.831,27.6909 135.477,27.1087 135.477,24.9159L 135.477,14.3571L 144.194,14.3571L 144.194,7.70428L 135.477,7.70428 Z "/>
	<path fill="#FFFFFF" fill-opacity="1" fill-rule="evenodd" stroke-width="0.2" stroke-linejoin="round" d="M 174.099,21.0073C 174.099,13.2338 167.828,6.93231 160.083,6.93231C 152.337,6.93231 146.067,13.2338 146.067,21.0073C 146.067,28.7835 152.337,35.0849 160.083,35.0849C 167.828,35.0849 174.099,28.7835 174.099,21.0073 Z M 166.584,21.0176C 166.584,25.0057 163.668,27.6807 160.082,27.6807C 156.487,27.6807 153.571,25.0262 153.571,21.0176C 153.571,17.0219 156.487,14.3571 160.082,14.3571C 163.668,14.3571 166.584,17.0424 166.584,21.0176 Z "/>
	<path fill="#FFFFFF" fill-opacity="1" fill-rule="evenodd" stroke-width="0.2" stroke-linejoin="round" d="M 46.3541,21.0073C 46.3541,12.5618 40.1835,6.93231 33.5306,6.93231C 30.035,6.93231 27.5499,8.26599 25.6776,10.0381L 25.6776,7.74536L 18.4426,7.74536L 18.4426,43.7202L 25.9572,43.7202L 25.9572,31.9688C 27.8319,33.8231 30.2941,35.0849 33.5306,35.0849C 40.2425,35.0849 46.3541,29.4528 46.3541,21.0073 Z M 38.8421,21.0176C 38.8421,25.0262 35.926,27.6807 32.338,27.6807C 28.7321,27.6807 25.8263,25.0057 25.8263,21.0176C 25.8263,17.0424 28.7423,14.3571 32.338,14.3571C 35.926,14.3571 38.8421,17.0219 38.8421,21.0176 Z "/>
	<path fill="#FFA000" fill-opacity="1" fill-rule="evenodd" stroke-width="0.2" stroke-linejoin="round" d="M 7.39392,28.4424C 11.4898,28.4321 14.7982,25.116 14.788,21.0176C 14.7982,16.932 11.4898,13.6057 7.39392,13.5954C 3.30591,13.6057 -0.0102539,16.932 0,21.0176C -0.0102539,25.116 3.30591,28.4321 7.39392,28.4424 Z "/>
	<path fill="#FFA000" fill-opacity="1" fill-rule="evenodd" stroke-width="0.2" stroke-linejoin="round" d="M 184.606,28.4424C 188.694,28.4321 192.01,25.116 192,21.0176C 192.01,16.932 188.694,13.6057 184.606,13.5954C 180.51,13.6057 177.204,16.932 177.215,21.0176C 177.204,25.116 180.521,28.4321 184.606,28.4424 Z "/>
</svg>
